<svg width="20" height="20" viewBox="0 0 20 20" fill="none" xmlns="http://www.w3.org/2000/svg">
<path d="M9.99984 17.1458C9.88873 17.1458 9.78109 17.1215 9.67692 17.0729C9.57275 17.0243 9.47206 16.9583 9.37484 16.875L6.854 14.3542C6.68734 14.1875 6.604 13.9861 6.604 13.75C6.604 13.5139 6.68734 13.3125 6.854 13.1458C7.02067 12.9792 7.22206 12.8958 7.45817 12.8958C7.69428 12.8958 7.89567 12.9792 8.06234 13.1458L9.99984 15.0833L11.9373 13.1458C12.104 12.9792 12.3054 12.8958 12.5415 12.8958C12.7776 12.8958 12.979 12.9792 13.1457 13.1458C13.3123 13.3125 13.3957 13.5139 13.3957 13.75C13.3957 13.9861 13.3123 14.1875 13.1457 14.3542L10.6248 16.875C10.5415 16.9583 10.4443 17.0243 10.3332 17.0729C10.2221 17.1215 10.1109 17.1458 9.99984 17.1458Z" fill="#C1C3C9"/>
<path d="M6.604 6.33333C6.604 6.56944 6.68734 6.77083 6.854 6.9375C7.02067 7.10417 7.22206 7.1875 7.45817 7.1875C7.69428 7.1875 7.89567 7.10417 8.06234 6.9375L9.99984 5L11.9373 6.9375C12.104 7.10417 12.3054 7.1875 12.5415 7.1875C12.7776 7.1875 12.979 7.10417 13.1457 6.9375C13.3123 6.77083 13.3957 6.56944 13.3957 6.33333C13.3957 6.09722 13.3123 5.89583 13.1457 5.72917L10.6248 3.20833C10.5415 3.11111 10.4443 3.04167 10.3332 3C10.2221 2.95833 10.1109 2.9375 9.99984 2.9375C9.88873 2.9375 9.78109 2.95833 9.67692 3C9.57275 3.04167 9.47206 3.11111 9.37484 3.20833L6.854 5.72917C6.68734 5.89583 6.604 6.09722 6.604 6.33333Z" fill="#C1C3C9"/>
</svg>
