<svg width="20" height="20" viewBox="0 0 20 20" fill="none" xmlns="http://www.w3.org/2000/svg">
<path d="M10.0003 17.1458C9.88921 17.1458 9.78158 17.1215 9.67741 17.0729C9.57324 17.0243 9.47255 16.9583 9.37533 16.875L6.85449 14.3542C6.68783 14.1875 6.60449 13.9861 6.60449 13.75C6.60449 13.5139 6.68783 13.3125 6.85449 13.1458C7.02116 12.9792 7.22255 12.8958 7.45866 12.8958C7.69477 12.8958 7.89616 12.9792 8.06283 13.1458L10.0003 15.0833L11.9378 13.1458C12.1045 12.9792 12.3059 12.8958 12.542 12.8958C12.7781 12.8958 12.9795 12.9792 13.1462 13.1458C13.3128 13.3125 13.3962 13.5139 13.3962 13.75C13.3962 13.9861 13.3128 14.1875 13.1462 14.3542L10.6253 16.875C10.542 16.9583 10.4448 17.0243 10.3337 17.0729C10.2225 17.1215 10.1114 17.1458 10.0003 17.1458Z" fill="#505462"/>
<path d="M6.60449 6.33333C6.60449 6.56944 6.68783 6.77083 6.85449 6.9375C7.02116 7.10417 7.22255 7.1875 7.45866 7.1875C7.69477 7.1875 7.89616 7.10417 8.06283 6.9375L10.0003 5L11.9378 6.9375C12.1045 7.10417 12.3059 7.1875 12.542 7.1875C12.7781 7.1875 12.9795 7.10417 13.1462 6.9375C13.3128 6.77083 13.3962 6.56944 13.3962 6.33333C13.3962 6.09722 13.3128 5.89583 13.1462 5.72917L10.6253 3.20833C10.542 3.11111 10.4448 3.04167 10.3337 3C10.2225 2.95833 10.1114 2.9375 10.0003 2.9375C9.88921 2.9375 9.78158 2.95833 9.67741 3C9.57324 3.04167 9.47255 3.11111 9.37533 3.20833L6.85449 5.72917C6.68783 5.89583 6.60449 6.09722 6.60449 6.33333Z" fill="#C1C3C9"/>
</svg>
